<svg width="128" height="128" viewBox="0 0 128 128" xmlns="http://www.w3.org/2000/svg">
  <defs>
    <linearGradient id="grad1" x1="0%" y1="0%" x2="100%" y2="100%">
      <stop offset="0%" style="stop-color:#667eea;stop-opacity:1" />
      <stop offset="100%" style="stop-color:#764ba2;stop-opacity:1" />
    </linearGradient>
    <linearGradient id="grad2" x1="0%" y1="0%" x2="100%" y2="100%">
      <stop offset="0%" style="stop-color:#a8edea;stop-opacity:1" />
      <stop offset="100%" style="stop-color:#fed6e3;stop-opacity:1" />
    </linearGradient>
  </defs>
  
  <!-- Background Circle -->
  <circle cx="64" cy="64" r="60" fill="url(#grad1)" stroke="white" stroke-width="4"/>
  
  <!-- Brain Icon -->
  <g transform="translate(32, 28)">
    <!-- Left Brain Hemisphere -->
    <path d="M20 15 C10 15, 5 25, 5 35 C5 45, 10 55, 20 55 C25 55, 30 50, 30 45 L30 25 C30 20, 25 15, 20 15 Z" 
          fill="white" opacity="0.9"/>
    
    <!-- Right Brain Hemisphere -->
    <path d="M44 15 C54 15, 59 25, 59 35 C59 45, 54 55, 44 55 C39 55, 34 50, 34 45 L34 25 C34 20, 39 15, 44 15 Z" 
          fill="white" opacity="0.9"/>
    
    <!-- Brain Stem -->
    <rect x="28" y="50" width="8" height="15" rx="4" fill="white" opacity="0.8"/>
    
    <!-- Neural Connections -->
    <circle cx="20" cy="30" r="2" fill="url(#grad2)"/>
    <circle cx="25" cy="35" r="1.5" fill="url(#grad2)"/>
    <circle cx="15" cy="40" r="1.5" fill="url(#grad2)"/>
    <circle cx="44" cy="30" r="2" fill="url(#grad2)"/>
    <circle cx="39" cy="35" r="1.5" fill="url(#grad2)"/>
    <circle cx="49" cy="40" r="1.5" fill="url(#grad2)"/>
    
    <!-- Connection Lines -->
    <line x1="20" y1="30" x2="25" y2="35" stroke="url(#grad2)" stroke-width="1" opacity="0.6"/>
    <line x1="25" y1="35" x2="15" y2="40" stroke="url(#grad2)" stroke-width="1" opacity="0.6"/>
    <line x1="44" y1="30" x2="39" y2="35" stroke="url(#grad2)" stroke-width="1" opacity="0.6"/>
    <line x1="39" y1="35" x2="49" y2="40" stroke="url(#grad2)" stroke-width="1" opacity="0.6"/>
  </g>
  
  <!-- AI Highlight Effect -->
  <g transform="translate(20, 85)">
    <rect x="0" y="0" width="88" height="8" rx="4" fill="url(#grad2)" opacity="0.7"/>
    <rect x="10" y="10" width="68" height="6" rx="3" fill="url(#grad2)" opacity="0.5"/>
    <rect x="20" y="18" width="48" height="4" rx="2" fill="url(#grad2)" opacity="0.3"/>
  </g>
</svg>
